<svg xmlns="http://www.w3.org/2000/svg" width="21.664" height="24" viewBox="0 0 21.664 24"><defs><style>.a{fill:#fafafa;}</style></defs><g transform="translate(-8.141)"><g transform="translate(10.725 12.552)"><path class="a" d="M11.586,15.172a2.586,2.586,0,1,1,2.586-2.586A2.589,2.589,0,0,1,11.586,15.172Zm0-3.879a1.293,1.293,0,1,0,1.293,1.293A1.294,1.294,0,0,0,11.586,11.293Z" transform="translate(-9 -10)"/></g><g transform="translate(8.141 18.828)"><path class="a" d="M16.7,20.172a.647.647,0,0,1-.647-.647V18.233a1.942,1.942,0,0,0-1.94-1.94H10.233a1.942,1.942,0,0,0-1.94,1.94v1.293a.647.647,0,0,1-1.293,0V18.233A3.236,3.236,0,0,1,10.233,15h3.879a3.236,3.236,0,0,1,3.233,3.233v1.293A.647.647,0,0,1,16.7,20.172Z" transform="translate(-7 -15)"/></g><g transform="translate(14.289)"><path class="a" d="M26.87,10.344a.639.639,0,0,1-.414-.15L23.638,7.845V8.4a1.942,1.942,0,0,1-1.94,1.94H13.94A1.942,1.942,0,0,1,12,8.4V1.94A1.942,1.942,0,0,1,13.94,0H21.7a1.942,1.942,0,0,1,1.94,1.94V2.5L26.456.151a.651.651,0,0,1,.688-.089.644.644,0,0,1,.372.584V9.7a.647.647,0,0,1-.372.586A.656.656,0,0,1,26.87,10.344ZM13.94,1.293a.648.648,0,0,0-.647.647V8.4a.648.648,0,0,0,.647.647H21.7a.648.648,0,0,0,.647-.647V6.465a.646.646,0,0,1,1.06-.5l2.819,2.349V2.026L23.4,4.374a.646.646,0,0,1-1.06-.5V1.94a.648.648,0,0,0-.647-.647Z" transform="translate(-12)"/></g></g></svg>