<svg xmlns="http://www.w3.org/2000/svg" xmlns:xlink="http://www.w3.org/1999/xlink" width="24" height="24" viewBox="0 0 24 24"><defs><style>.a{fill:url(#a);}</style><linearGradient id="a" x1="0.208" y1="-0.38" x2="1.321" y2="1.833" gradientUnits="objectBoundingBox"><stop offset="0" stop-color="#fff"/><stop offset="0.442" stop-color="#efefef"/><stop offset="1"/></linearGradient></defs><g transform="translate(-0.001 -16.013)"><path class="a" d="M23.781,27.046,14.453,17.1a3.322,3.322,0,0,0-4.906,0L.22,27.046a.838.838,0,0,0,0,1.132.717.717,0,0,0,1.06,0l.595-.635V37.713a2.232,2.232,0,0,0,2.156,2.3h3.75a.485.485,0,0,0,.469-.5v-7.4a2.426,2.426,0,0,1,2.344-2.5h2.813a2.426,2.426,0,0,1,2.344,2.5v7.4a.485.485,0,0,0,.469.5h3.75a2.232,2.232,0,0,0,2.156-2.3V27.543l.595.635a.717.717,0,0,0,1.06,0,.838.838,0,0,0,0-1.132Z" transform="translate(0)"/></g></svg>