<svg xmlns="http://www.w3.org/2000/svg" width="18" height="22" viewBox="0 0 18 22"><defs><style>.a{fill:#fafafa;}</style></defs><g transform="translate(-3)"><g transform="translate(3)"><path class="a" d="M18.5,22H5.5A2.406,2.406,0,0,1,3,19.708V2.292A2.406,2.406,0,0,1,5.5,0h13A2.406,2.406,0,0,1,21,2.292V19.708A2.406,2.406,0,0,1,18.5,22ZM5.5.917A1.443,1.443,0,0,0,4,2.292V19.708a1.443,1.443,0,0,0,1.5,1.375h13A1.443,1.443,0,0,0,20,19.708V2.292A1.443,1.443,0,0,0,18.5.917Z" transform="translate(-3)"/></g><g transform="translate(7.271 13.834)"><path class="a" d="M15.064,15.788H6.394a.394.394,0,1,1,0-.788h8.67a.394.394,0,0,1,0,.788Z" transform="translate(-6 -15)"/></g><g transform="translate(7.271 17.523)"><path class="a" d="M15.064,19.788H6.394a.394.394,0,1,1,0-.788h8.67a.394.394,0,0,1,0,.788Z" transform="translate(-6 -19)"/></g><g transform="translate(10.424 2.364)"><path class="a" d="M11.576,6.153a1.576,1.576,0,1,1,1.576-1.576A1.578,1.578,0,0,1,11.576,6.153Zm0-2.364a.788.788,0,1,0,.788.788A.789.789,0,0,0,11.576,3.788Z" transform="translate(-10 -3)"/></g><g transform="translate(8.847 7.539)"><path class="a" d="M13.911,11.153a.394.394,0,0,1-.394-.394V9.97a1.184,1.184,0,0,0-1.182-1.182H9.97A1.184,1.184,0,0,0,8.788,9.97v.788a.394.394,0,1,1-.788,0V9.97A1.973,1.973,0,0,1,9.97,8h2.364a1.973,1.973,0,0,1,1.97,1.97v.788A.394.394,0,0,1,13.911,11.153Z" transform="translate(-8 -8)"/></g></g></svg>